<svg width="120" height="120" viewBox="0 0 120 120" fill="none" xmlns="http://www.w3.org/2000/svg">
<path d="M112.703 93.9464C99.9825 98.914 85.6782 98.9406 72.9368 94.0205C60.1954 89.1004 50.0607 79.6365 44.7621 67.7109C39.4634 55.7852 39.435 42.3746 44.683 30.4293C49.9311 18.484 60.0256 8.98243 72.746 4.01487C74.3755 3.28426 76.7134 2.48723 78.3428 1.75662C65.5761 -1.36114 52.0573 -0.306906 40.0154 4.74548C32.1555 7.70246 25.0026 12.0978 18.9745 17.675C12.9464 23.2522 8.16386 29.8993 4.90605 37.2284C1.64825 44.5575 -0.0195019 52.4216 0.000172055 60.3616C0.019846 68.3016 1.72655 76.1584 5.02064 83.4732C8.31473 90.788 13.1302 97.4142 19.1859 102.965C25.2415 108.516 32.4161 112.88 40.2906 115.803C48.1651 118.726 56.5818 120.148 65.0492 119.988C73.5166 119.827 81.8651 118.087 89.6073 114.868C102.62 109.979 113.381 100.949 120 89.3635C117.767 91.1535 115.318 92.6917 112.703 93.9464V93.9464Z" fill="white"/>
</svg>
