<svg width="100" height="100" viewBox="0 0 100 100" fill="none" xmlns="http://www.w3.org/2000/svg">
<path d="M94.5228 40.1179H89.2217C88.2363 36.2764 86.6984 32.6786 84.6929 29.3875L88.5039 25.5677C89.5328 24.5389 90.0983 23.1663 90.0983 21.7089C90.0983 20.2536 89.5284 18.8789 88.5039 17.8522L82.1522 11.507C80.0922 9.44488 76.4922 9.44706 74.441 11.5048L70.469 15.4529C67.2148 13.5561 63.7257 12.0943 59.8821 11.1546V5.4816C59.8821 2.47324 57.4785 0 54.4701 0H45.4907C42.4824 0 40.1157 2.47324 40.1157 5.4816V11.1524C36.2743 12.09 32.7634 13.5539 29.5049 15.4529L25.5351 11.5048C23.4773 9.4427 19.8751 9.44488 17.8108 11.5027L11.4635 17.8478C10.4455 18.8637 9.8647 20.2689 9.8647 21.7045C9.8647 23.1597 10.4281 24.5301 11.4591 25.559L15.2702 29.3875C13.2668 32.6786 11.7267 36.2764 10.7435 40.1179H5.44027C2.42974 40.1179 0 42.5368 0 45.5386V54.5114C0 57.522 2.42974 59.8865 5.44027 59.8865H10.7435C11.7267 63.7279 13.2646 67.3475 15.2658 70.6387L11.4548 74.4736C10.4237 75.5025 9.85818 76.8794 9.85818 78.3368C9.85818 79.7942 10.4259 81.1712 11.4548 82.2L17.8065 88.5496C18.8376 89.5784 20.2058 90.144 21.661 90.144C23.1162 90.144 24.4866 89.5763 25.5177 88.5496L29.5049 84.5993C32.7634 86.4983 36.2743 87.9601 40.1157 88.9019V94.5663C40.1157 97.5746 42.4824 100 45.4907 100H54.4701C57.4785 100 59.8821 97.5746 59.8821 94.5663V88.8998C63.7257 87.9601 67.2148 86.4983 70.4733 84.5993L74.4257 88.5409C75.4568 89.5741 76.8272 90.1397 78.2868 90.1397C79.7442 90.1397 81.1168 89.5719 82.1457 88.5452L88.4973 82.2C89.5262 81.1733 90.0896 79.8007 90.094 78.3455C90.094 76.8881 89.5241 75.5199 88.4973 74.4888L84.6907 70.6387C86.6919 67.3453 88.2298 63.7236 89.2152 59.8865H94.5184C97.5268 59.8865 100 57.522 100 54.5114V45.5386C100.002 42.5368 97.5311 40.1179 94.5228 40.1179ZM49.9782 67.1061C40.4551 67.1061 32.733 59.4558 32.733 50.0261C32.733 40.5899 40.4551 32.9505 49.9782 32.9505C59.5036 32.9505 67.2301 40.5899 67.2301 50.0261C67.2279 59.4579 59.5036 67.1061 49.9782 67.1061Z" fill="#E88686"/>
</svg>
