<svg width="120" height="120" viewBox="0 0 120 120" fill="none" xmlns="http://www.w3.org/2000/svg">
<path d="M59.9331 0.000522237C58.7991 0.0182491 57.7184 0.485182 56.9283 1.29884C56.1381 2.1125 55.7031 3.20641 55.7186 4.34048V17.1848C55.7106 17.7521 55.8154 18.3154 56.027 18.8419C56.2385 19.3683 56.5526 19.8475 56.951 20.2516C57.3493 20.6556 57.824 20.9764 58.3475 21.1954C58.8709 21.4144 59.4326 21.5272 60 21.5272C60.5674 21.5272 61.1291 21.4144 61.6525 21.1954C62.176 20.9764 62.6507 20.6556 63.049 20.2516C63.4474 19.8475 63.7615 19.3683 63.973 18.8419C64.1846 18.3154 64.2894 17.7521 64.2814 17.1848V4.34048C64.2892 3.76767 64.182 3.19912 63.9662 2.66847C63.7503 2.13783 63.4302 1.6559 63.0247 1.25121C62.6193 0.846528 62.1367 0.527319 61.6057 0.312489C61.0746 0.0976588 60.5059 -0.00842428 59.9331 0.000522237ZM20.5981 16.3235C19.7471 16.3253 18.916 16.5808 18.2108 17.0571C17.5056 17.5335 16.9584 18.2092 16.6389 18.998C16.3195 19.7867 16.2423 20.6528 16.4173 21.4856C16.5922 22.3185 17.0114 23.0803 17.6212 23.6738L26.7024 32.7551C27.0969 33.166 27.5694 33.4941 28.0923 33.72C28.6152 33.946 29.1779 34.0654 29.7475 34.0712C30.3171 34.077 30.8821 33.9691 31.4095 33.7538C31.9368 33.5385 32.4159 33.2201 32.8187 32.8173C33.2215 32.4145 33.5398 31.9354 33.7551 31.408C33.9705 30.8807 34.0784 30.3156 34.0726 29.746C34.0668 29.1764 33.9474 28.6137 33.7214 28.0908C33.4954 27.568 33.1674 27.0954 32.7565 26.7009L23.6753 17.6196C23.2754 17.2085 22.7969 16.8819 22.2683 16.6592C21.7397 16.4366 21.1717 16.3224 20.5981 16.3235ZM99.2681 16.3235C98.1558 16.3566 97.1001 16.8215 96.3247 17.6196L87.2435 26.7009C86.8326 27.0954 86.5046 27.568 86.2786 28.0908C86.0526 28.6137 85.9332 29.1764 85.9274 29.746C85.9216 30.3156 86.0296 30.8807 86.2449 31.408C86.4602 31.9354 86.7785 32.4145 87.1813 32.8173C87.5841 33.2201 88.0632 33.5384 88.5906 33.7537C89.1179 33.9691 89.6829 34.077 90.2525 34.0712C90.8221 34.0654 91.3848 33.946 91.9077 33.72C92.4306 33.494 92.9031 33.166 93.2976 32.7551L102.379 23.6738C102.997 23.0724 103.42 22.2982 103.591 21.4525C103.762 20.6068 103.674 19.7292 103.338 18.9346C103.001 18.1401 102.433 17.4656 101.707 16.9997C100.98 16.5337 100.13 16.298 99.2681 16.3235ZM60 30.029C52.0516 30.029 44.4287 33.1866 38.8084 38.8071C33.188 44.4275 30.0305 52.0505 30.0305 59.999C30.0305 67.9476 33.188 75.5706 38.8084 81.191C44.4287 86.8115 52.0516 89.969 60 89.969C67.9484 89.969 75.5713 86.8115 81.1916 81.191C86.812 75.5706 89.9695 67.9476 89.9695 59.999C89.9695 52.0505 86.812 44.4275 81.1916 38.8071C75.5713 33.1866 67.9484 30.029 60 30.029ZM4.34234 55.7176C3.775 55.7096 3.21174 55.8144 2.68527 56.026C2.15879 56.2375 1.67962 56.5516 1.27559 56.95C0.871559 57.3483 0.550731 57.823 0.331749 58.3465C0.112768 58.8699 0 59.4316 0 59.999C0 60.5664 0.112768 61.1282 0.331749 61.6516C0.550731 62.1751 0.871559 62.6497 1.27559 63.0481C1.67962 63.4465 2.15879 63.7606 2.68527 63.9721C3.21174 64.1837 3.775 64.2885 4.34234 64.2805H17.1864C17.7537 64.2885 18.317 64.1837 18.8435 63.9721C19.37 63.7606 19.8491 63.4465 20.2532 63.0481C20.6572 62.6497 20.978 62.1751 21.197 61.6516C21.416 61.1282 21.5287 60.5664 21.5287 59.999C21.5287 59.4316 21.416 58.8699 21.197 58.3465C20.978 57.823 20.6572 57.3483 20.2532 56.95C19.8491 56.5516 19.37 56.2375 18.8435 56.026C18.317 55.8144 17.7537 55.7096 17.1864 55.7176H4.34234ZM102.814 55.7176C102.246 55.7096 101.683 55.8144 101.157 56.026C100.63 56.2375 100.151 56.5516 99.7468 56.95C99.3428 57.3483 99.022 57.823 98.803 58.3465C98.584 58.8699 98.4713 59.4316 98.4713 59.999C98.4713 60.5664 98.584 61.1282 98.803 61.6516C99.022 62.1751 99.3428 62.6497 99.7468 63.0481C100.151 63.4465 100.63 63.7606 101.157 63.9721C101.683 64.1837 102.246 64.2885 102.814 64.2805H115.658C116.225 64.2885 116.788 64.1837 117.315 63.9721C117.841 63.7606 118.32 63.4465 118.724 63.0481C119.128 62.6497 119.449 62.1751 119.668 61.6516C119.887 61.1282 120 60.5664 120 59.999C120 59.4316 119.887 58.8699 119.668 58.3465C119.449 57.823 119.128 57.3483 118.724 56.95C118.32 56.5516 117.841 56.2375 117.315 56.026C116.788 55.8144 116.225 55.7096 115.658 55.7176H102.814ZM29.6458 85.9468C28.5335 85.98 27.4778 86.4448 26.7024 87.243L17.6212 96.3243C17.2104 96.7188 16.8823 97.1913 16.6563 97.7142C16.4304 98.2371 16.311 98.7998 16.3052 99.3694C16.2994 99.939 16.4073 100.504 16.6226 101.031C16.8379 101.559 17.1563 102.038 17.5591 102.441C17.9618 102.843 18.4409 103.162 18.9683 103.377C19.4957 103.592 20.0607 103.7 20.6303 103.695C21.1999 103.689 21.7626 103.569 22.2854 103.343C22.8083 103.117 23.2808 102.789 23.6753 102.378L32.7565 93.2972C33.3752 92.6958 33.7977 91.9215 33.9688 91.0759C34.1399 90.2302 34.0515 89.3526 33.7153 88.558C33.379 87.7634 32.8105 87.089 32.0844 86.623C31.3582 86.1571 30.5082 85.9214 29.6458 85.9468ZM90.2287 85.9468C89.377 85.9471 88.5447 86.2013 87.8383 86.677C87.1318 87.1527 86.5833 87.8283 86.2628 88.6175C85.9423 89.4066 85.8644 90.2733 86.0391 91.107C86.2138 91.9406 86.6331 92.7031 87.2435 93.2972L96.3247 102.378C96.7192 102.789 97.1917 103.117 97.7146 103.343C98.2374 103.569 98.8001 103.689 99.3697 103.695C99.9393 103.7 100.504 103.592 101.032 103.377C101.559 103.162 102.038 102.843 102.441 102.441C102.844 102.038 103.162 101.559 103.377 101.031C103.593 100.504 103.701 99.939 103.695 99.3694C103.689 98.7998 103.57 98.2371 103.344 97.7142C103.118 97.1913 102.79 96.7188 102.379 96.3243L93.2976 87.243C92.8986 86.8328 92.4215 86.5068 91.8944 86.2842C91.3673 86.0616 90.8009 85.9469 90.2287 85.9468ZM59.9331 98.4734C58.7991 98.4911 57.7184 98.958 56.9283 99.7717C56.1381 100.585 55.7031 101.679 55.7186 102.813V115.658C55.7106 116.225 55.8154 116.788 56.027 117.315C56.2385 117.841 56.5526 118.32 56.951 118.724C57.3493 119.128 57.824 119.449 58.3475 119.668C58.8709 119.887 59.4326 120 60 120C60.5674 120 61.1291 119.887 61.6525 119.668C62.176 119.449 62.6507 119.128 63.049 118.724C63.4474 118.32 63.7615 117.841 63.973 117.315C64.1846 116.788 64.2894 116.225 64.2814 115.658V102.813C64.2892 102.241 64.182 101.672 63.9662 101.141C63.7503 100.611 63.4302 100.129 63.0247 99.724C62.6193 99.3194 62.1367 99.0001 61.6057 98.7853C61.0746 98.5705 60.5059 98.4644 59.9331 98.4734Z" fill="white"/>
</svg>
